<?xml version="1.0" standalone="no"?><!DOCTYPE svg PUBLIC "-//W3C//DTD SVG 1.1//EN" "http://www.w3.org/Graphics/SVG/1.1/DTD/svg11.dtd"><svg t="1623495585255" class="icon" viewBox="0 0 1024 1024" version="1.1" xmlns="http://www.w3.org/2000/svg" p-id="3186" width="200" height="200" xmlns:xlink="http://www.w3.org/1999/xlink"><defs><style type="text/css"></style></defs><path d="M1004.509682 30.157806a120.296709 120.296709 0 0 0-94.806029-29.189643l-804.041972 100.515298A120.779182 120.779182 0 0 0 0 221.136872v581.702132a120.779182 120.779182 0 0 0 105.661681 119.733823l804.122384 100.515298a117.723517 117.723517 0 0 0 14.876264 0.884535 120.618358 120.618358 0 0 0 120.69877-120.618358V120.621574a120.457533 120.457533 0 0 0-40.849417-90.463768z m-84.7545 50.579298A45.674151 45.674151 0 0 1 924.901566 80.415455a40.206119 40.206119 0 0 1 40.045294 40.206119v62.88237a103.8122 103.8122 0 0 1-184.948148-65.535974 101.801894 101.801894 0 0 1 4.101024-20.263884zM80.412238 802.839004v-241.236715a977.49117 977.49117 0 0 1 264.39544 45.030854v116.115272l116.436921-75.587504a1117.97135 1117.97135 0 0 1 160.020355 99.711175 611.535073 611.535073 0 0 0-145.948213 140.882242l-359.683942-45.030853A40.206119 40.206119 0 0 1 80.412238 802.839004z m344.807678-228.209932V385.017014l146.18945 94.806029zM964.94686 903.354302a40.206119 40.206119 0 0 1-45.191678 39.884471l-351.240657-43.905083A529.916651 529.916651 0 0 1 964.94686 721.059758z m-267.209868-200.226473A1205.62069 1205.62069 0 0 0 537.153752 597.948621l182.053308-118.20599-374.399382-242.84496v285.865507A1056.697224 1056.697224 0 0 0 80.412238 481.109639V221.136872a40.286531 40.286531 0 0 1 35.220561-39.88447l584.918622-73.175137c-0.160824 3.377314-0.964947 6.593804-0.964947 9.890705A183.58114 183.58114 0 0 0 964.94686 283.697593v356.949927a609.685591 609.685591 0 0 0-267.209868 62.480309z" fill="#8745ff" p-id="3187"></path></svg>